<?xml version="1.0" encoding="UTF-8" standalone="no"?>
<svg
   width="256"
   height="256"
   fill="none"
   viewBox="0 0 256 256"
   version="1.1"
   id="svg6361"
   sodipodi:docname="Figma.svg"
   inkscape:version="1.2 (dc2aedaf03, 2022-05-15)"
   xmlns:inkscape="http://www.inkscape.org/namespaces/inkscape"
   xmlns:sodipodi="http://sodipodi.sourceforge.net/DTD/sodipodi-0.dtd"
   xmlns="http://www.w3.org/2000/svg"
   xmlns:svg="http://www.w3.org/2000/svg">
  <sodipodi:namedview
     id="namedview6363"
     pagecolor="#ffffff"
     bordercolor="#000000"
     borderopacity="0.25"
     inkscape:showpageshadow="2"
     inkscape:pageopacity="0.0"
     inkscape:pagecheckerboard="0"
     inkscape:deskcolor="#d1d1d1"
     showgrid="false"
     inkscape:zoom="3.28125"
     inkscape:cx="128"
     inkscape:cy="128.15238"
     inkscape:window-width="1920"
     inkscape:window-height="1027"
     inkscape:window-x="-8"
     inkscape:window-y="-8"
     inkscape:window-maximized="1"
     inkscape:current-layer="svg6361" />
  <rect
     width="256"
     height="256"
     fill="#242938"
     rx="60"
     id="rect6342"
     style="fill:#ff0043;fill-opacity:1" />
  <g
     clip-path="url(#clip0_4_180)"
     id="g6354">
    <path
       fill="#0ACF83"
       d="M94.3467 228C112.747 228 127.68 213.067 127.68 194.667V161.333H94.3467C75.9467 161.333 61.0133 176.267 61.0133 194.667C61.0133 213.067 75.9467 228 94.3467 228Z"
       id="path6344"
       style="fill:#ffffff;fill-opacity:1" />
    <path
       fill="#A259FF"
       d="M61.0133 128C61.0133 109.6 75.9467 94.6667 94.3467 94.6667H127.68V161.333H94.3467C75.9467 161.333 61.0133 146.4 61.0133 128Z"
       id="path6346"
       style="fill:#ffffff;fill-opacity:1" />
    <path
       fill="#F24E1E"
       d="M61.0133 61.3333C61.0133 42.9333 75.9467 28 94.3467 28H127.68V94.6667H94.3467C75.9467 94.6667 61.0133 79.7333 61.0133 61.3333Z"
       id="path6348"
       style="fill:#ffffff;fill-opacity:1" />
    <path
       fill="#FF7262"
       d="M127.68 28H161.013C179.413 28 194.347 42.9333 194.347 61.3333C194.347 79.7333 179.413 94.6667 161.013 94.6667H127.68V28Z"
       id="path6350"
       style="fill:#ffffff;fill-opacity:1" />
    <path
       fill="#1ABCFE"
       d="M194.347 128C194.347 146.4 179.413 161.333 161.013 161.333C142.613 161.333 127.68 146.4 127.68 128C127.68 109.6 142.613 94.6667 161.013 94.6667C179.413 94.6667 194.347 109.6 194.347 128Z"
       id="path6352"
       style="fill:#ffffff;fill-opacity:1" />
  </g>
  <defs
     id="defs6359">
    <clipPath
       id="clip0_4_180">
      <rect
         width="133.36"
         height="200"
         fill="#fff"
         transform="translate(61 28)"
         id="rect6356" />
    </clipPath>
  </defs>
</svg>
