<?xml version="1.0" encoding="UTF-8" standalone="no"?>
<svg
   width="256"
   height="256"
   viewBox="0 0 256 256"
   fill="none"
   version="1.1"
   id="svg1"
   sodipodi:docname="Jest.svg"
   xmlns:inkscape="http://www.inkscape.org/namespaces/inkscape"
   xmlns:sodipodi="http://sodipodi.sourceforge.net/DTD/sodipodi-0.dtd"
   xmlns="http://www.w3.org/2000/svg"
   xmlns:svg="http://www.w3.org/2000/svg">
  <defs
     id="defs1" />
  <sodipodi:namedview
     id="namedview1"
     pagecolor="#505050"
     bordercolor="#eeeeee"
     borderopacity="1"
     inkscape:showpageshadow="0"
     inkscape:pageopacity="0"
     inkscape:pagecheckerboard="0"
     inkscape:deskcolor="#505050" />
  <rect
     width="256"
     height="256"
     rx="60"
     fill="#99424F"
     id="rect1"
     style="fill:#ff0043;fill-opacity:1"
     x="0"
     y="0" />
  <path
     d="m 213.353,126.495 c 0,-12.045 -8.28,-22.178 -19.397,-25.073 L 218.854,28 H 95.461 l 24.957,73.654 c -10.771,3.127 -18.703,13.086 -18.703,24.898 0,8.686 4.342,16.387 10.943,21.135 -2.605,3.706 -5.616,7.123 -9.033,10.365 -6.4269,6.022 -13.549,10.654 -21.2503,13.723 -6.9484,-4.69 -9.9594,-12.97 -7.2379,-20.382 10.5964,-3.242 18.2976,-13.144 18.2976,-24.783 0,-14.302 -11.6387,-25.883 -25.883,-25.883 -14.3023,0 -25.941,11.639 -25.941,25.941 0,7.064 2.8952,13.55 7.5275,18.182 -0.4053,0.811 -0.8106,1.621 -1.216,2.49 -3.8795,7.991 -8.2802,17.024 -9.9594,27.157 -3.3585,20.266 2.1424,36.537 15.4024,45.744 7.4696,5.153 15.692,7.759 24.5512,7.759 15.2288,0 30.6889,-7.643 45.6279,-15.055 10.655,-5.269 21.656,-10.77 32.484,-13.434 3.996,-0.984 8.165,-1.563 12.566,-2.2 8.917,-1.274 18.124,-2.606 26.404,-7.412 9.67,-5.616 16.271,-14.997 18.182,-25.767 1.447,-8.28 0,-16.618 -3.706,-23.914 2.49,-3.996 3.879,-8.686 3.879,-13.723 z m -11.291,0 c 0,8.048 -6.543,14.591 -14.592,14.591 -8.048,0 -14.591,-6.543 -14.591,-14.591 0,-2.606 0.694,-5.096 1.91,-7.238 0.464,-0.811 1.043,-1.622 1.622,-2.317 0.579,-0.694 1.274,-1.331 2.026,-1.91 l 0.058,-0.058 c 0.463,-0.348 0.985,-0.695 1.506,-1.043 0,0 0.058,0 0.058,-0.058 0.231,-0.115 0.463,-0.289 0.694,-0.405 0.058,0 0.116,-0.058 0.174,-0.058 0.232,-0.116 0.521,-0.231 0.811,-0.347 0.289,-0.116 0.579,-0.232 0.81,-0.348 0.058,0 0.116,-0.058 0.174,-0.058 0.232,-0.057 0.463,-0.173 0.695,-0.231 0.058,0 0.174,-0.058 0.232,-0.058 0.289,-0.058 0.521,-0.116 0.81,-0.174 h 0.058 l 0.869,-0.173 c 0.058,0 0.173,0 0.231,-0.058 0.232,0 0.464,-0.058 0.695,-0.058 h 0.29 c 0.289,0 0.579,-0.058 0.926,-0.058 h 0.753 c 0.232,0 0.405,0 0.637,0.058 h 0.116 c 0.463,0.058 0.926,0.116 1.389,0.231 6.601,1.39 11.639,7.296 11.639,14.361 z M 111.616,39.5808 h 91.083 l -20.903,61.6672 c -0.869,0.174 -1.737,0.464 -2.606,0.753 L 157.187,57.1257 135.125,101.712 c -0.868,-0.29 -1.795,-0.464 -2.721,-0.637 z m 41.401,81.8762 c -1.1,-5.443 -3.879,-10.307 -7.817,-13.897 l 11.987,-24.2039 12.101,24.7249 c -3.59,3.59 -6.195,8.165 -7.238,13.376 z m -29.009,-9.149 c 0.289,-0.058 0.521,-0.116 0.81,-0.174 h 0.174 c 0.232,-0.058 0.463,-0.058 0.695,-0.115 h 0.231 c 0.232,0 0.406,-0.058 0.637,-0.058 h 2.259 c 0.231,0 0.405,0.058 0.579,0.058 0.116,0 0.173,0 0.289,0.057 0.232,0.058 0.406,0.058 0.637,0.116 0.058,0 0.116,0 0.232,0.058 0.289,0.058 0.579,0.116 0.81,0.174 h 0.058 c 0.232,0.058 0.464,0.116 0.695,0.231 0.058,0 0.116,0.058 0.232,0.058 0.174,0.058 0.405,0.116 0.579,0.232 0.058,0 0.116,0.058 0.174,0.058 0.231,0.116 0.463,0.174 0.694,0.289 h 0.058 c 0.29,0.116 0.521,0.232 0.753,0.406 h 0.058 c 0.232,0.116 0.463,0.289 0.695,0.405 0.058,0 0.058,0.058 0.116,0.058 0.231,0.116 0.405,0.289 0.637,0.405 l 0.057,0.058 c 0.695,0.521 1.332,1.1 1.969,1.679 l 0.058,0.058 c 0.579,0.637 1.158,1.332 1.621,2.085 1.506,2.316 2.374,5.037 2.374,7.991 0,8.048 -6.543,14.591 -14.591,14.591 -8.049,0 -14.592,-6.543 -14.592,-14.591 -0.058,-6.775 4.632,-12.508 11.002,-14.129 z m -56.9778,-0.405 c 8.0487,0 14.5918,6.543 14.5918,14.592 0,8.048 -6.5431,14.591 -14.5918,14.591 -8.0486,0 -14.5918,-6.543 -14.5918,-14.591 0,-8.049 6.5432,-14.592 14.5918,-14.592 z m 134.6848,50.202 c -1.274,7.412 -5.849,13.897 -12.566,17.777 -6.311,3.648 -14.07,4.806 -22.235,5.964 -4.458,0.637 -9.148,1.332 -13.665,2.432 -12.044,2.953 -23.625,8.743 -34.858,14.302 -14.36,7.122 -27.9097,13.839 -40.4749,13.839 -6.5431,0 -12.3914,-1.853 -17.9502,-5.732 -12.7388,-8.802 -12.1019,-25.304 -10.5964,-34.337 1.3897,-8.454 5.2693,-16.387 8.9751,-23.972 0.2317,-0.464 0.4054,-0.869 0.637,-1.332 1.2739,0.463 2.6057,0.81 3.9954,1.042 -2.2004,12.276 4.0532,24.957 16.213,31.21 l 2.2004,1.158 2.374,-0.868 c 10.1332,-3.59 19.5136,-9.439 27.7936,-17.256 4.691,-4.4 8.686,-9.148 12.044,-14.302 1.332,0.232 2.664,0.29 3.996,0.29 12.044,0 22.177,-8.281 25.072,-19.398 h 9.728 c 2.895,11.175 13.028,19.398 25.072,19.398 4.806,0 9.265,-1.332 13.087,-3.59 1.505,4.342 1.968,8.859 1.158,13.375 z"
     fill="#ffffff"
     id="path1" />
</svg>
