<?xml version="1.0" encoding="UTF-8" standalone="no"?>
<svg
   width="256"
   height="256"
   fill="none"
   viewBox="0 0 256 256"
   version="1.1"
   id="svg1"
   sodipodi:docname="NestJS-Dark.svg"
   xmlns:inkscape="http://www.inkscape.org/namespaces/inkscape"
   xmlns:sodipodi="http://sodipodi.sourceforge.net/DTD/sodipodi-0.dtd"
   xmlns="http://www.w3.org/2000/svg"
   xmlns:svg="http://www.w3.org/2000/svg">
  <defs
     id="defs1" />
  <sodipodi:namedview
     id="namedview1"
     pagecolor="#505050"
     bordercolor="#eeeeee"
     borderopacity="1"
     inkscape:showpageshadow="0"
     inkscape:pageopacity="0"
     inkscape:pagecheckerboard="0"
     inkscape:deskcolor="#505050" />
  <rect
     width="256"
     height="256"
     fill="#242938"
     rx="60"
     id="rect1"
     style="fill:#ff0043;fill-opacity:1"
     x="0"
     y="0" />
  <path
     fill="#E0234E"
     d="m 146.728,18 c -1.556,0 -3.001,0.3422 -4.335,0.7985 2.835,1.9394 4.391,4.5061 5.169,7.4151 0.056,0.3993 0.167,0.6845 0.222,1.0837 0.056,0.3423 0.112,0.6845 0.112,1.0268 0.222,5.0194 -1.279,5.6468 -2.335,8.6128 -1.612,3.8217 -1.167,7.9285 0.778,11.2367 0.167,0.3993 0.389,0.8556 0.667,1.2549 -2.112,-14.4309 9.616,-16.5984 11.784,-21.1044 0.166,-3.9357 -3.002,-6.5595 -5.503,-8.3848 C 150.897,18.4563 148.729,18 146.728,18 Z m 17.676,3.2512 c -0.223,1.3119 -0.056,0.9697 -0.111,1.6542 -0.056,0.4563 -0.056,1.0267 -0.112,1.483 -0.111,0.4563 -0.222,0.9126 -0.389,1.3689 -0.111,0.4563 -0.278,0.9126 -0.444,1.3689 -0.223,0.4564 -0.389,0.8556 -0.612,1.3119 -0.166,0.2283 -0.278,0.4563 -0.444,0.6845 -0.111,0.1711 -0.223,0.3422 -0.334,0.5134 -0.278,0.3993 -0.556,0.7985 -0.834,1.1407 -0.333,0.3423 -0.611,0.7415 -1,1.0268 0,0.0571 0,0.0571 0,0.0571 -0.334,0.2852 -0.667,0.6274 -1.056,0.9126 -1.167,0.9126 -2.501,1.5971 -3.724,2.4527 -0.389,0.2851 -0.778,0.5133 -1.112,0.8555 -0.389,0.2852 -0.722,0.5704 -1.056,0.9127 -0.389,0.3422 -0.667,0.6844 -1,1.0837 -0.278,0.3423 -0.612,0.7415 -0.834,1.1408 -0.278,0.3993 -0.556,0.7985 -0.778,1.1978 -0.223,0.4563 -0.389,0.8556 -0.612,1.3119 -0.166,0.4563 -0.333,0.8556 -0.444,1.3119 -0.167,0.5133 -0.278,0.9697 -0.389,1.426 -0.056,0.2282 -0.056,0.5133 -0.112,0.7415 -0.055,0.2282 -0.055,0.4563 -0.111,0.6845 0,0.4563 -0.055,0.9696 -0.055,1.4259 0,0.3423 0,0.6845 0.055,1.0267 0,0.4563 0.056,0.9126 0.167,1.426 0.056,0.4563 0.167,0.9126 0.278,1.3689 0.167,0.4563 0.278,0.9127 0.445,1.369 0.111,0.2852 0.278,0.5704 0.389,0.7985 l -12.784,-5.0765 c -2.168,-0.6274 -4.28,-1.1978 -6.448,-1.7111 -1.167,-0.2852 -2.334,-0.5704 -3.502,-0.8556 -3.335,-0.6845 -6.725,-1.1978 -10.116,-1.54 -0.111,0 -0.166,-0.0572 -0.278,-0.0572 -3.335,-0.3422 -6.614,-0.5133 -9.949,-0.5133 -2.446,0 -4.891,0.114 -7.2812,0.2852 -3.3906,0.2282 -6.7811,0.6844 -10.1717,1.2548 -0.8337,0.114 -1.6675,0.2852 -2.5012,0.4564 -1.7231,0.3422 -3.3906,0.7415 -5.0025,1.1407 -0.8337,0.2283 -1.6674,0.4563 -2.5012,0.6845 -0.8337,0.3422 -1.6119,0.7415 -2.3901,1.0837 -0.6114,0.2852 -1.2228,0.5704 -1.8342,0.8556 -0.1111,0.0571 -0.2224,0.0571 -0.2779,0.114 -0.5558,0.2852 -1.0561,0.5133 -1.5563,0.7986 -0.1667,0.0571 -0.2779,0.1139 -0.3891,0.1711 -0.6114,0.2852 -1.2228,0.6274 -1.723,0.9126 -0.3891,0.1711 -0.7782,0.3993 -1.1117,0.5704 -0.1667,0.114 -0.3891,0.2282 -0.5002,0.2852 -0.5003,0.2852 -1.0005,0.5704 -1.4452,0.8556 -0.5002,0.2852 -0.9449,0.5703 -1.334,0.8555 -0.3891,0.2853 -0.7781,0.5134 -1.1116,0.7986 -0.0557,0.0571 -0.1111,0.0571 -0.1668,0.114 -0.3335,0.2282 -0.7226,0.5133 -1.0561,0.7985 0,0 -0.0556,0.0571 -0.111,0.114 -0.2779,0.2283 -0.5559,0.4563 -0.8338,0.6845 -0.1111,0.0571 -0.2224,0.1711 -0.3335,0.2282 -0.2779,0.2283 -0.5558,0.5134 -0.8337,0.7415 -0.0557,0.114 -0.1668,0.1712 -0.2224,0.2283 -0.3335,0.3422 -0.667,0.6274 -1.0005,0.9697 -0.0557,0 -0.0557,0.0571 -0.1111,0.1139 -0.3335,0.2852 -0.667,0.6275 -1.0005,0.9697 -0.0557,0.0571 -0.0557,0.114 -0.1111,0.114 -0.2779,0.2852 -0.5558,0.5704 -0.8337,0.9126 -0.1111,0.114 -0.2779,0.2283 -0.3891,0.3422 -0.2779,0.3423 -0.6114,0.6845 -0.9449,1.0268 -0.0557,0.1139 -0.1667,0.1711 -0.2224,0.2851 -0.4447,0.4564 -0.8338,0.9127 -1.2784,1.369 -0.0557,0.0571 -0.1111,0.114 -0.1668,0.1711 -0.8893,0.9697 -1.8342,1.9393 -2.8347,2.7949 -1.0005,0.9126 -2.0565,1.7682 -3.1126,2.5097 -1.1117,0.7986 -2.1678,1.483 -3.335,2.1675 -1.1117,0.6274 -2.2789,1.1978 -3.5017,1.7112 -1.1673,0.5133 -2.3901,0.9697 -3.6129,1.3689 -2.3345,0.5134 -4.7245,1.483 -6.7811,1.6541 -0.4447,0 -0.9449,0.114 -1.3896,0.1711 -0.5002,0.114 -0.9449,0.2283 -1.3895,0.3423 -0.4447,0.1711 -0.8894,0.3422 -1.334,0.5133 -0.4447,0.1712 -0.8893,0.3993 -1.334,0.6275 -0.3891,0.2852 -0.8337,0.5133 -1.2228,0.7985 -0.3891,0.2852 -0.7782,0.6274 -1.1117,0.9697 -0.389,0.2852 -0.7781,0.6845 -1.1116,1.0267 -0.3335,0.3993 -0.667,0.7415 -0.9449,1.1408 -0.2779,0.4563 -0.6114,0.8556 -0.8338,1.3119 -0.2779,0.3993 -0.5558,0.8555 -0.7781,1.3118 -0.2225,0.5134 -0.4447,0.9697 -0.6115,1.4831 -0.1667,0.4563 -0.3335,0.9696 -0.5002,1.483 -0.1111,0.4563 -0.2224,0.9126 -0.2779,1.3689 0,0.0572 -0.0557,0.114 -0.0557,0.1711 -0.1111,0.5134 -0.1111,1.1979 -0.1667,1.5401 C 20.0554,90.7245 20,91.0667 20,91.466 c 0,0.2283 0,0.5133 0.0557,0.7415 0.0556,0.3993 0.111,0.7415 0.2224,1.0838 0.1111,0.3422 0.2224,0.6844 0.389,1.0267 0,0.0571 0,0.0571 0,0.0571 0.1668,0.3422 0.3891,0.6844 0.6115,1.0267 0.2224,0.3422 0.4446,0.6844 0.7225,1.0267 0.278,0.2852 0.6115,0.6274 0.945,0.9126 0.3334,0.3422 0.667,0.6274 1.056,0.9126 1.334,1.1978 1.6675,1.5971 3.3906,2.5093 0.2779,0.172 0.5558,0.286 0.8893,0.457 0.0557,0 0.1111,0.057 0.1668,0.057 0,0.114 0,0.171 0.0556,0.285 0.0557,0.456 0.1668,0.913 0.2779,1.369 0.1111,0.513 0.278,0.97 0.4447,1.369 0.1668,0.342 0.2779,0.684 0.4447,1.027 0.0557,0.114 0.1111,0.228 0.1667,0.285 0.2225,0.456 0.4447,0.855 0.667,1.255 0.2779,0.399 0.5558,0.798 0.8338,1.198 0.2779,0.342 0.6114,0.741 0.9449,1.083 0.3335,0.343 0.667,0.628 1.056,0.97 0,0 0.0557,0.057 0.1111,0.057 0.3335,0.285 0.667,0.571 1.0005,0.799 0.3891,0.285 0.7782,0.513 1.2228,0.741 0.3891,0.228 0.8338,0.456 1.2784,0.628 0.3335,0.171 0.7226,0.285 1.1117,0.399 0.0557,0.057 0.1111,0.057 0.2224,0.114 0.2224,0.057 0.5002,0.114 0.7226,0.171 -0.1668,3.08 -0.2224,5.989 0.2224,7.016 0.5002,1.141 2.9459,-2.339 5.3915,-6.332 -0.3335,3.936 -0.5558,8.556 0,9.925 0.6114,1.426 3.9464,-3.023 6.8367,-7.928 39.4082,-9.355 75.3698,18.595 79.1498,58.066 -0.723,-6.161 -8.115,-9.583 -11.506,-8.727 -1.667,4.22 -4.502,9.639 -9.06,13.004 0.39,-3.764 0.223,-7.643 -0.555,-11.407 -1.223,5.247 -3.613,10.153 -6.893,14.373 -5.28,0.4 -10.5604,-2.224 -13.3395,-6.16 -0.2225,-0.171 -0.2779,-0.513 -0.4447,-0.741 -0.1667,-0.4 -0.3335,-0.799 -0.4447,-1.198 -0.1667,-0.399 -0.2779,-0.799 -0.3335,-1.198 -0.0556,-0.399 -0.0556,-0.798 -0.0556,-1.255 0,-0.285 0,-0.57 0,-0.855 0.0556,-0.4 0.1667,-0.799 0.2779,-1.198 0.111,-0.399 0.2224,-0.799 0.3891,-1.198 0.2224,-0.399 0.389,-0.798 0.667,-1.198 0.9449,-2.738 0.9449,-4.962 -0.7782,-6.274 -0.3335,-0.228 -0.667,-0.399 -1.0561,-0.57 -0.2224,-0.058 -0.5002,-0.172 -0.7226,-0.229 -0.1667,-0.057 -0.2779,-0.114 -0.4446,-0.171 -0.3891,-0.114 -0.7782,-0.228 -1.1673,-0.285 -0.389,-0.114 -0.7781,-0.171 -1.1672,-0.171 -0.3891,-0.057 -0.8337,-0.114 -1.2228,-0.114 -0.2779,0 -0.5559,0.057 -0.8338,0.057 -0.4446,0 -0.8337,0.057 -1.2228,0.171 -0.3891,0.057 -0.7781,0.114 -1.1672,0.228 -0.3891,0.114 -0.7782,0.229 -1.1673,0.4 -0.389,0.171 -0.7225,0.342 -1.1116,0.513 -0.3335,0.171 -0.667,0.399 -1.0561,0.57 -12.9508,8.67 -5.2248,28.976 3.6129,34.851 -3.335,0.628 -6.7255,1.369 -7.6704,2.111 -0.0557,0.057 -0.1111,0.114 -0.1111,0.114 2.3901,1.483 4.8913,2.738 7.5037,3.821 3.5573,1.198 7.3369,2.282 9.0044,2.738 v 0.057 c 4.6133,0.97 9.2823,1.312 14.0071,1.027 24.623,-1.768 44.799,-20.99 48.468,-46.316 0.111,0.514 0.222,0.97 0.333,1.483 0.167,1.027 0.389,2.111 0.501,3.194 0,0 0,0 0,0.058 0.111,0.513 0.166,1.026 0.222,1.483 0,0.114 0,0.171 0,0.228 0.056,0.513 0.111,1.027 0.111,1.483 0.056,0.627 0.111,1.255 0.111,1.882 0,0.285 0,0.571 0,0.913 0,0.285 0.056,0.627 0.056,0.912 0,0.343 -0.056,0.685 -0.056,1.027 0,0.285 0,0.571 0,0.799 0,0.399 -0.055,0.741 -0.055,1.141 0,0.228 0,0.456 -0.056,0.741 0,0.399 -0.056,0.799 -0.056,1.255 -0.056,0.171 -0.056,0.342 -0.056,0.513 -0.055,0.457 -0.111,0.856 -0.166,1.312 0,0.171 0,0.342 -0.056,0.514 -0.056,0.57 -0.167,1.083 -0.222,1.654 v 0.057 0.057 c -0.111,0.513 -0.223,1.084 -0.334,1.597 0,0.057 0,0.114 0,0.171 -0.111,0.513 -0.222,1.027 -0.333,1.54 0,0.057 -0.056,0.171 -0.056,0.228 -0.111,0.514 -0.222,1.027 -0.389,1.541 0,0.057 0,0.113 0,0.171 -0.167,0.57 -0.334,1.083 -0.445,1.597 -0.055,0.057 -0.055,0.114 -0.055,0.114 -0.167,0.57 -0.334,1.14 -0.501,1.711 -0.222,0.57 -0.389,1.084 -0.611,1.654 -0.222,0.57 -0.389,1.141 -0.611,1.654 -0.223,0.571 -0.445,1.084 -0.667,1.654 h -0.056 c -0.223,0.514 -0.445,1.084 -0.723,1.597 -0.056,0.171 -0.111,0.286 -0.167,0.4 -0.055,0.057 -0.055,0.114 -0.111,0.171 -3.613,7.472 -8.948,14.031 -15.618,19.165 -0.445,0.285 -0.89,0.627 -1.334,0.97 -0.111,0.113 -0.278,0.171 -0.389,0.285 -0.39,0.285 -0.779,0.57 -1.223,0.855 l 0.166,0.343 h 0.056 c 0.778,-0.114 1.556,-0.229 2.335,-0.343 h 0.055 c 1.445,-0.228 2.891,-0.513 4.336,-0.798 0.389,-0.057 0.833,-0.171 1.223,-0.285 0.277,-0.058 0.5,-0.114 0.778,-0.172 0.389,-0.057 0.778,-0.171 1.167,-0.228 0.333,-0.114 0.667,-0.171 1,-0.285 5.559,-1.369 10.95,-3.251 16.119,-5.476 -8.837,12.378 -20.676,22.36 -34.516,28.919 6.392,-0.456 12.784,-1.54 18.953,-3.365 22.4,-6.788 41.243,-22.246 52.526,-43.065 -2.279,13.176 -7.393,25.725 -14.952,36.676 5.392,-3.65 10.339,-7.871 14.841,-12.662 12.45,-13.347 20.621,-30.288 23.4,-48.483 1.89,9.012 2.446,18.309 1.612,27.492 40.131,-57.438 3.335,-116.9867 -12.061,-132.6724 -0.056,-0.114 -0.111,-0.1711 -0.111,-0.2852 -0.056,0.0571 -0.056,0.0571 -0.056,0.114 0,-0.0571 0,-0.0571 -0.056,-0.114 0,0.6845 -0.056,1.3689 -0.111,2.0534 -0.167,1.3119 -0.333,2.5667 -0.556,3.8216 -0.278,1.2549 -0.611,2.5097 -0.945,3.7646 -0.389,1.1978 -0.833,2.4526 -1.334,3.6505 -0.5,1.1407 -1.056,2.3386 -1.667,3.4794 -0.612,1.0837 -1.279,2.2245 -2.001,3.2512 -0.723,1.0837 -1.501,2.1104 -2.279,3.0801 -0.834,1.0267 -1.723,1.9393 -2.612,2.8519 -0.556,0.5134 -1.057,0.9697 -1.612,1.426 -0.445,0.3993 -0.834,0.7415 -1.279,1.1408 -1,0.7985 -2.001,1.54 -3.112,2.2245 -1.056,0.6845 -2.168,1.3689 -3.28,1.9393 -1.167,0.5704 -2.334,1.0838 -3.501,1.5971 -1.168,0.4563 -2.391,0.8556 -3.613,1.1979 -1.223,0.3422 -2.502,0.6274 -3.724,0.8555 -1.279,0.2283 -2.557,0.3423 -3.78,0.4564 -0.889,0.0571 -1.779,0.114 -2.668,0.114 -1.278,0 -2.557,-0.114 -3.78,-0.2283 -1.278,-0.114 -2.556,-0.2852 -3.779,-0.5704 -1.279,-0.2283 -2.501,-0.5704 -3.724,-0.9697 h -0.056 c 1.223,-0.1139 2.446,-0.2282 3.669,-0.4563 1.278,-0.2282 2.501,-0.5133 3.724,-0.8556 1.222,-0.3422 2.445,-0.7415 3.612,-1.1978 1.223,-0.4563 2.39,-1.0267 3.502,-1.5971 1.167,-0.5704 2.223,-1.1978 3.335,-1.8823 1.056,-0.7415 2.112,-1.483 3.113,-2.2815 1,-0.7986 1.945,-1.6541 2.834,-2.5668 0.945,-0.8556 1.779,-1.8252 2.613,-2.7949 0.834,-1.0267 1.612,-2.0534 2.334,-3.0801 0.111,-0.1711 0.223,-0.3993 0.334,-0.5704 0.556,-0.9126 1.111,-1.8252 1.612,-2.7379 0.611,-1.1408 1.167,-2.2815 1.667,-3.4793 0.5,-1.1979 0.945,-2.3957 1.334,-3.6505 0.389,-1.1979 0.667,-2.4527 0.945,-3.7076 0.223,-1.3119 0.445,-2.5667 0.556,-3.8216 0.111,-1.3119 0.222,-2.6238 0.222,-3.8786 0,-0.9127 -0.055,-1.8253 -0.111,-2.7379 -0.111,-1.3119 -0.278,-2.5668 -0.444,-3.8216 -0.223,-1.3119 -0.501,-2.5668 -0.834,-3.8216 -0.389,-1.1978 -0.778,-2.4527 -1.223,-3.6505 -0.445,-1.1978 -1,-2.3957 -1.556,-3.5365 -0.612,-1.1407 -1.223,-2.2815 -1.89,-3.3652 -0.723,-1.0838 -1.445,-2.1105 -2.223,-3.1372 -0.834,-0.9697 -1.668,-1.9393 -2.557,-2.909 -0.445,-0.4563 -0.945,-0.9696 -1.445,-1.4259 -2.502,-1.9964 -5.114,-3.8787 -7.726,-5.5899 -0.389,-0.2282 -0.723,-0.3992 -1.112,-0.5704 -1.834,-1.1978 -3.557,-1.8252 -5.28,-2.3956 z"
     id="path1"
     style="fill:#ffffff;fill-opacity:1" />
</svg>
