<?xml version="1.0" encoding="UTF-8" standalone="no"?>
<svg
   width="256"
   height="256"
   fill="none"
   viewBox="0 0 256 256"
   version="1.1"
   id="svg1"
   sodipodi:docname="NextJS-Dark.svg"
   xmlns:inkscape="http://www.inkscape.org/namespaces/inkscape"
   xmlns:sodipodi="http://sodipodi.sourceforge.net/DTD/sodipodi-0.dtd"
   xmlns="http://www.w3.org/2000/svg"
   xmlns:svg="http://www.w3.org/2000/svg">
  <defs
     id="defs1" />
  <sodipodi:namedview
     id="namedview1"
     pagecolor="#505050"
     bordercolor="#eeeeee"
     borderopacity="1"
     inkscape:showpageshadow="0"
     inkscape:pageopacity="0"
     inkscape:pagecheckerboard="0"
     inkscape:deskcolor="#505050" />
  <rect
     width="256"
     height="256"
     fill="#242938"
     rx="60"
     id="rect1"
     style="fill:#ff0043;fill-opacity:1"
     x="0"
     y="0" />
  <path
     fill="#ffffff"
     d="m 121.451,28.0537 c -0.43,0.0391 -1.799,0.176 -3.031,0.2737 C 90.0137,30.8885 63.4057,46.216 46.5533,69.7742 37.1691,82.8729 31.1672,97.7312 28.8993,113.469 28.0978,118.963 28,120.586 28,128.034 c 0,7.449 0.0978,9.072 0.8993,14.565 5.435,37.556 32.1603,69.111 68.4067,80.802 6.491,2.092 13.333,3.519 21.114,4.379 3.031,0.332 16.129,0.332 19.16,0 13.431,-1.486 24.809,-4.809 36.031,-10.538 1.72,-0.879 2.053,-1.114 1.818,-1.309 -0.156,-0.118 -7.488,-9.952 -16.285,-21.838 l -15.992,-21.603 -20.04,-29.658 c -11.026,-16.305 -20.097,-29.639 -20.176,-29.639 -0.078,-0.019 -0.156,13.158 -0.195,29.248 -0.059,28.172 -0.078,29.306 -0.43,29.97 -0.508,0.958 -0.899,1.349 -1.721,1.78 -0.6252,0.312 -1.1726,0.371 -4.1247,0.371 h -3.3822 l -0.8993,-0.567 c -0.5865,-0.371 -1.0166,-0.86 -1.3099,-1.427 l -0.4106,-0.88 0.0391,-39.198 0.0587,-39.2183 0.6061,-0.7625 c 0.3128,-0.4105 0.9775,-0.9384 1.4467,-1.1926 0.8015,-0.391 1.1144,-0.4301 4.4966,-0.4301 3.9885,0 4.6525,0.1564 5.6895,1.2904 0.293,0.3128 11.143,16.6571 24.125,36.3441 12.981,19.687 30.733,46.569 39.452,59.765 l 15.836,23.989 0.802,-0.528 c 7.096,-4.614 14.604,-11.183 20.547,-18.026 12.649,-14.526 20.802,-32.238 23.539,-51.124 0.801,-5.493 0.899,-7.116 0.899,-14.565 0,-7.448 -0.098,-9.071 -0.899,-14.565 -5.435,-37.556 -32.161,-69.1103 -68.407,-80.8014 -6.393,-2.0723 -13.196,-3.4995 -20.821,-4.3597 -1.877,-0.1955 -14.8,-0.4106 -16.422,-0.2542 z m 40.938,60.4888 c 0.938,0.4692 1.701,1.3685 1.975,2.3069 0.156,0.5083 0.195,11.3786 0.156,35.8746 l -0.059,35.152 -6.197,-9.502 -6.217,-9.501 v -25.552 c 0,-16.52 0.078,-25.8069 0.195,-26.2565 0.313,-1.0948 0.997,-1.955 1.936,-2.4634 0.801,-0.4105 1.095,-0.4496 4.164,-0.4496 2.894,0 3.402,0.0391 4.047,0.391 z"
     id="path1" />
</svg>
