<?xml version="1.0" encoding="UTF-8" standalone="no"?>
<svg
   width="256"
   height="256"
   fill="none"
   viewBox="0 0 256 256"
   version="1.1"
   id="svg1"
   sodipodi:docname="Rust.svg"
   inkscape:export-filename="../../../Pictures/Rust.png"
   inkscape:export-xdpi="96"
   inkscape:export-ydpi="96"
   xmlns:inkscape="http://www.inkscape.org/namespaces/inkscape"
   xmlns:sodipodi="http://sodipodi.sourceforge.net/DTD/sodipodi-0.dtd"
   xmlns="http://www.w3.org/2000/svg"
   xmlns:svg="http://www.w3.org/2000/svg">
  <defs
     id="defs1" />
  <sodipodi:namedview
     id="namedview1"
     pagecolor="#505050"
     bordercolor="#eeeeee"
     borderopacity="1"
     inkscape:showpageshadow="0"
     inkscape:pageopacity="0"
     inkscape:pagecheckerboard="0"
     inkscape:deskcolor="#505050"
     showgrid="false" />
  <rect
     width="256"
     height="256"
     fill="#E43717"
     rx="60"
     id="rect1"
     inkscape:label="rect1"
     style="fill:#ff0038;fill-opacity:1"
     x="0"
     y="0" />
  <path
     fill="#ffffff"
     d="m 226.574,125.551 -8.39,-5.198 c -0.071,-0.818 -0.151,-1.634 -0.239,-2.446 l 7.224,-6.727 c 0.734,-0.684 1.063,-1.697 0.864,-2.676 -0.193,-0.984 -0.883,-1.794 -1.821,-2.14 l -9.232,-3.44 c -0.231,-0.799 -0.474,-1.592 -0.722,-2.389 l 5.753,-7.9882 c 0.587,-0.8123 0.707,-1.8691 0.325,-2.7902 -0.383,-0.9231 -1.218,-1.5843 -2.198,-1.7468 l -9.729,-1.5823 c -0.378,-0.7377 -0.772,-1.4639 -1.17,-2.1787 l 4.091,-8.982 c 0.418,-0.9135 0.332,-1.9685 -0.226,-2.8093 -0.556,-0.8333 -1.498,-1.3206 -2.504,-1.2824 l -9.881,0.344 c -0.51,-0.6383 -1.03,-1.2708 -1.56,-1.8919 l 2.275,-9.6128 c 0.229,-0.9765 -0.059,-2.0066 -0.77,-2.7137 -0.706,-0.7071 -1.73,-0.9995 -2.715,-0.7702 l -9.613,2.2742 c -0.623,-0.5275 -1.256,-1.0492 -1.896,-1.5594 l 0.346,-9.8803 c 0.038,-0.9995 -0.45,-1.9493 -1.283,-2.5035 -0.835,-0.5581 -1.892,-0.6422 -2.81,-0.2275 l -8.964,4.0898 c -0.724,-0.3975 -1.45,-0.7912 -2.178,-1.1715 l -1.587,-9.7274 c -0.16,-0.9862 -0.822,-1.8232 -1.747,-2.1978 -0.923,-0.3841 -1.987,-0.2599 -2.79,0.3249 l -7.989,5.7524 c -0.788,-0.2504 -1.579,-0.4912 -2.37,-0.7205 l -3.441,-9.2305 c -0.35,-0.9403 -1.16,-1.6302 -2.14,-1.8251 -0.983,-0.193 -1.988,0.1338 -2.676,0.8638 l -6.728,7.2239 c -0.812,-0.0898 -1.63,-0.172 -2.446,-0.2389 l -5.199,-8.4088 C 129.912,28.5179 128.981,28 127.972,28 c -1.009,0 -1.93,0.5179 -2.446,1.3683 l -5.199,8.4088 c -0.818,0.0669 -1.636,0.1491 -2.446,0.2389 l -6.728,-7.2239 c -0.682,-0.73 -1.695,-1.0568 -2.676,-0.8638 -0.984,0.1968 -1.795,0.8848 -2.141,1.8251 l -3.44,9.2305 c -0.799,0.2293 -1.59,0.472 -2.37,0.7205 L 92.5368,35.952 c -0.8123,-0.5867 -1.8711,-0.7109 -2.7905,-0.3249 -0.9231,0.3822 -1.5863,1.2193 -1.7469,2.1978 l -1.5864,9.7274 c -0.7339,0.3803 -1.4602,0.772 -2.1788,1.1715 l -8.964,-4.0898 c -0.9117,-0.4166 -1.9686,-0.3306 -2.8096,0.2275 -0.8333,0.5542 -1.3207,1.504 -1.2825,2.5035 l 0.344,9.8803 c -0.6383,0.5102 -1.271,1.0319 -1.896,1.5594 l -9.6138,-2.2742 c -0.9767,-0.2274 -2.0069,0.0631 -2.714,0.7702 -0.711,0.709 -0.9996,1.7314 -0.7703,2.7137 l 2.2553,9.6128 c -0.5256,0.623 -1.0454,1.2536 -1.5558,1.8919 l -9.8814,-0.344 c -0.9957,-0.0286 -1.9495,0.4491 -2.5038,1.2824 -0.5581,0.8294 -0.6421,1.8919 -0.2274,2.8093 l 4.0902,8.982 c -0.3976,0.7205 -0.7913,1.4467 -1.1716,2.1787 l -9.7285,1.5823 c -0.9882,0.1606 -1.8215,0.8218 -2.198,1.7468 -0.3823,0.9269 -0.2581,1.9875 0.3249,2.7902 l 5.753,7.9882 c -0.2504,0.789 -0.4931,1.582 -0.7225,2.389 l -9.2315,3.44 c -0.9366,0.35 -1.6266,1.16 -1.8215,2.14 -0.195,0.983 0.1319,1.988 0.8639,2.676 l 7.2247,6.727 c -0.0898,0.812 -0.1701,1.63 -0.2389,2.446 l -8.3906,5.198 C 28.518,126.077 28,127.005 28,128.016 c 0,1.011 0.518,1.931 1.3685,2.447 l 8.3906,5.198 c 0.0688,0.818 0.1491,1.634 0.2389,2.446 l -7.2247,6.727 c -0.732,0.682 -1.0589,1.695 -0.8639,2.675 0.1949,0.985 0.8849,1.793 1.8215,2.141 l 9.2315,3.44 c 0.2294,0.799 0.4721,1.592 0.7225,2.389 l -5.753,7.988 c -0.5849,0.814 -0.7091,1.871 -0.3249,2.79 0.3841,0.927 1.2194,1.588 2.2171,1.747 l 9.7285,1.582 c 0.3803,0.738 0.7702,1.464 1.1716,2.179 l -4.0902,8.963 c -0.4166,0.911 -0.3306,1.968 0.2275,2.809 0.5581,0.835 1.508,1.323 2.5038,1.282 l 9.8622,-0.345 c 0.5142,0.642 1.0322,1.27 1.5597,1.895 l -2.2554,9.613 c -0.2293,0.975 0.0593,1.988 0.7703,2.695 0.7053,0.713 1.7316,0.997 2.714,0.768 L 69.63,197.19 c 0.6249,0.531 1.2576,1.047 1.896,1.556 l -0.3441,9.88 c -0.0382,0.999 0.4492,1.949 1.2825,2.503 0.8295,0.556 1.8922,0.641 2.8096,0.224 l 8.964,-4.09 c 0.7225,0.402 1.4488,0.791 2.1789,1.172 l 1.5863,9.727 c 0.1606,0.99 0.8219,1.827 1.747,2.217 0.9231,0.384 1.9877,0.26 2.7905,-0.323 l 7.9893,-5.752 c 0.789,0.25 1.582,0.495 2.389,0.724 l 3.44,9.23 c 0.35,0.937 1.16,1.631 2.141,1.822 0.982,0.198 1.988,-0.13 2.676,-0.864 l 6.728,-7.224 c 0.812,0.094 1.63,0.172 2.446,0.245 l 5.199,8.389 c 0.523,0.847 1.454,1.369 2.446,1.369 0.992,0 1.931,-0.52 2.466,-1.369 l 5.199,-8.389 c 0.818,-0.073 1.634,-0.151 2.446,-0.245 l 6.728,7.224 c 0.682,0.734 1.695,1.062 2.676,0.864 0.984,-0.193 1.794,-0.885 2.14,-1.822 l 3.441,-9.23 c 0.798,-0.229 1.592,-0.474 2.389,-0.724 l 7.989,5.752 c 0.812,0.583 1.871,0.707 2.79,0.323 0.925,-0.38 1.587,-1.219 1.747,-2.217 l 1.587,-9.727 c 0.734,-0.381 1.46,-0.776 2.179,-1.172 l 8.964,4.09 c 0.911,0.417 1.968,0.332 2.809,-0.224 0.833,-0.558 1.319,-1.504 1.283,-2.503 l -0.344,-9.88 c 0.638,-0.511 1.271,-1.025 1.894,-1.556 l 9.613,2.255 c 0.977,0.229 2.007,-0.055 2.715,-0.768 0.711,-0.709 0.999,-1.728 0.77,-2.695 l -2.256,-9.613 c 0.528,-0.625 1.048,-1.253 1.556,-1.895 l 9.882,0.345 c 0.995,0.041 1.949,-0.447 2.503,-1.282 0.559,-0.833 0.645,-1.894 0.226,-2.809 l -4.09,-8.963 c 0.399,-0.724 0.791,-1.451 1.17,-2.179 l 9.728,-1.582 c 0.99,-0.159 1.823,-0.82 2.198,-1.747 0.382,-0.923 0.262,-1.987 -0.325,-2.79 l -5.753,-7.988 c 0.249,-0.79 0.491,-1.583 0.723,-2.389 l 9.231,-3.44 c 0.939,-0.352 1.63,-1.16 1.822,-2.141 0.198,-0.982 -0.13,-1.987 -0.864,-2.675 l -7.225,-6.727 c 0.088,-0.812 0.168,-1.63 0.239,-2.446 l 8.391,-5.198 c 0.85,-0.524 1.368,-1.455 1.368,-2.447 0,-0.991 -0.516,-1.93 -1.367,-2.465 z m -56.192,69.755 c -3.211,-0.692 -5.237,-3.861 -4.549,-7.071 0.686,-3.211 3.842,-5.256 7.053,-4.568 3.211,0.686 5.256,3.86 4.568,7.071 -0.688,3.211 -3.842,5.256 -7.053,4.568 z m -2.848,-19.302 c -2.924,-0.627 -5.81,1.234 -6.422,4.166 l -2.981,13.912 c -9.194,4.167 -19.496,6.498 -30.199,6.498 -11.009,0 -21.406,-2.427 -30.7717,-6.784 l -2.9817,-13.913 c -0.6269,-2.924 -3.4976,-4.797 -6.4219,-4.166 l -12.2897,2.637 c -2.2744,-2.35 -4.3959,-4.854 -6.3455,-7.491 h 59.8235 c 0.677,0 1.128,-0.122 1.128,-0.738 v -21.213 c 0,-0.615 -0.451,-0.737 -1.128,-0.737 h -17.488 v -13.397 h 18.902 c 1.726,0 9.232,0.493 11.621,10.09 0.751,2.943 2.408,12.537 3.536,15.614 1.124,3.44 5.696,10.32 10.57,10.32 h 29.816 c 0.338,0 0.699,-0.039 1.08,-0.107 -2.065,2.809 -4.339,5.465 -6.766,7.95 l -12.577,-2.695 z m -82.7589,19.015 c -3.211,0.692 -6.3647,-1.353 -7.0527,-4.568 -0.6862,-3.21 1.3532,-6.383 4.568,-7.071 3.211,-0.686 6.3646,1.359 7.0527,4.568 0.6861,3.211 -1.3551,6.383 -4.568,7.071 z M 62.0306,103.096 c 1.3303,3 -0.0229,6.517 -3.0198,7.854 -3.0007,1.332 -6.4984,-0.022 -7.8363,-3.019 -1.3379,-2.997 0.0229,-6.517 3.0198,-7.855 3.0008,-1.3297 6.4984,0.023 7.8363,3.02 z m -6.9762,16.512 12.8057,-5.695 c 2.7331,-1.214 3.9755,-4.415 2.7523,-7.148 l -2.6376,-5.962 H 78.334 v 46.63 H 57.5009 c -1.8139,-6.383 -2.7905,-13.11 -2.7905,-20.066 0,-2.657 0.1433,-5.275 0.4185,-7.855 z m 56.1926,-4.53 v -13.759 h 24.655 c 1.275,0 9.002,1.473 9.002,7.243 0,4.796 -5.925,6.516 -10.798,6.516 H 111.17 Z m 89.639,12.384 c 0,1.827 -0.067,3.631 -0.2,5.428 h -7.512 c -0.751,0 -1.053,0.493 -1.053,1.228 v 3.44 c 0,8.103 -4.568,9.881 -8.582,10.32 -3.822,0.43 -8.046,-1.597 -8.562,-3.937 -2.256,-12.67 -6.002,-15.365 -11.927,-20.066 7.359,-4.663 15.004,-11.562 15.004,-20.831 0,-9.9564 -6.823,-16.2248 -11.468,-19.3016 -6.536,-4.2999 -13.761,-5.1599 -15.711,-5.1599 H 73.2767 C 83.8079,66.8485 98.1236,58.5161 114.178,55.4584 l 9.156,9.5936 c 2.064,2.1596 5.485,2.2551 7.664,0.1759 l 10.244,-9.7848 c 21.407,3.9942 39.564,17.3335 50.076,35.7372 l -7.014,15.8237 c -1.21,2.733 0.025,5.944 2.752,7.148 l 13.494,6 c 0.233,2.389 0.355,4.816 0.355,7.262 z M 123.288,47.3879 c 2.37,-2.2742 6.135,-2.1786 8.39,0.193 2.256,2.3698 2.179,6.1346 -0.197,8.4088 -2.37,2.2742 -6.135,2.1786 -8.39,-0.1949 -2.255,-2.3698 -2.179,-6.1346 0.197,-8.4088 z m 69.571,55.9951 c 1.328,-3.001 4.835,-4.3577 7.836,-3.02 3.001,1.33 4.358,4.854 3.02,7.855 -1.328,3 -4.836,4.357 -7.836,3.019 -3.001,-1.33 -4.358,-4.854 -3.02,-7.854 z"
     id="path1"
     inkscape:label="path1" />
</svg>
