<?xml version="1.0" encoding="UTF-8" standalone="no"?>
<svg
   width="256"
   height="256"
   fill="none"
   viewBox="0 0 256 256"
   version="1.1"
   id="svg2"
   sodipodi:docname="TailwindCSS-Dark.svg"
   xmlns:inkscape="http://www.inkscape.org/namespaces/inkscape"
   xmlns:sodipodi="http://sodipodi.sourceforge.net/DTD/sodipodi-0.dtd"
   xmlns="http://www.w3.org/2000/svg"
   xmlns:svg="http://www.w3.org/2000/svg">
  <sodipodi:namedview
     id="namedview2"
     pagecolor="#505050"
     bordercolor="#eeeeee"
     borderopacity="1"
     inkscape:showpageshadow="0"
     inkscape:pageopacity="0"
     inkscape:pagecheckerboard="0"
     inkscape:deskcolor="#505050" />
  <rect
     width="256"
     height="256"
     fill="#242938"
     rx="60"
     id="rect1"
     style="fill:#ff0043;fill-opacity:1"
     x="0"
     y="0" />
  <path
     fill="url(#paint0_linear_2_119)"
     fill-rule="evenodd"
     d="m 83,110 c 5.9991,-23.9991 21.001,-36 45,-36 36,0 40.5,27 58.5,31.5 12.001,3.001 22.5,-1.499 31.5,-13.5 -5.999,23.999 -21.001,36 -45,36 -36,0 -40.5,-27 -58.5,-31.5 C 102.499,93.4991 92,97.9991 83,110 Z m -45,54 c 5.9991,-23.999 21.0009,-36 45,-36 36,0 40.5,27 58.5,31.5 12.001,3.001 22.5,-1.499 31.5,-13.5 -5.999,23.999 -21.001,36 -45,36 C 92,182 87.5,155 69.5,150.5 57.4991,147.499 47,151.999 38,164 Z"
     clip-rule="evenodd"
     id="path1"
     style="fill:url(#paint0_linear_2_119)" />
  <defs
     id="defs2">
    <linearGradient
       id="paint0_linear_2_119"
       x1="86.5"
       x2="163.5"
       y1="74"
       y2="185.5"
       gradientUnits="userSpaceOnUse">
      <stop
         stop-color="#32B1C1"
         id="stop1"
         offset="0"
         style="stop-color:#ffffff;stop-opacity:1;" />
      <stop
         offset="1"
         stop-color="#14C6B7"
         id="stop2"
         style="stop-color:#ffffff;stop-opacity:1;" />
    </linearGradient>
  </defs>
</svg>
